<?xml version="1.0" encoding="UTF-8"?>
<svg version="1.1" xmlns="http://www.w3.org/2000/svg" width="120" height="114">
<path d="M0 0 C39.6 0 79.2 0 120 0 C120 37.62 120 75.24 120 114 C80.4 114 40.8 114 0 114 C0 76.38 0 38.76 0 0 Z " fill="#F9F9F7" transform="translate(0,0)"/>
<path d="M0 0 C5.8568009 0.07708036 10.09433411 3.1668636 14.89453125 6.23828125 C15.78720703 6.78548828 16.67988281 7.33269531 17.59960938 7.89648438 C25.53455602 12.82224132 25.53455602 12.82224132 27.58203125 15.42578125 C27.92260742 17.41870117 27.92260742 17.41870117 27.875 19.65625 C27.86533203 20.45869141 27.85566406 21.26113281 27.84570312 22.08789062 C27.82056641 22.92126953 27.79542969 23.75464844 27.76953125 24.61328125 C27.74922852 25.88075195 27.74922852 25.88075195 27.72851562 27.17382812 C27.69318924 29.25808509 27.63938264 31.34201402 27.58203125 33.42578125 C28.81566406 33.37550781 30.04929687 33.32523438 31.3203125 33.2734375 C36.00647745 33.28272521 38.20306028 34.55431236 41.765625 37.53125 C49.16129222 45.24501044 53.67209717 57.7943043 53.83203125 68.36328125 C53.8578125 69.38292969 53.88359375 70.40257813 53.91015625 71.453125 C53.45310079 75.59382986 51.70877252 77.98973846 49.1875 81.203125 C46.38202312 83.33965606 43.6165936 83.01032094 40.20703125 82.90625 C34.92812115 81.94002092 31.53288537 78.30062807 27.77734375 74.69140625 C24.9173022 72.02203413 23.32367559 70.55665966 19.39453125 69.86328125 C17.50734375 70.14171875 17.50734375 70.14171875 15.58203125 70.42578125 C14.19951172 70.48958984 14.19951172 70.48958984 12.7890625 70.5546875 C8.5699423 71.0626931 5.04678302 71.60294304 2.2578125 75.07373047 C0.53962918 77.811577 -0.94052199 80.60337666 -2.30029297 83.53515625 C-4.55691115 88.35941881 -6.50211388 90.89003025 -11.41796875 93.42578125 C-15.71976738 94.04032391 -17.80193578 93.74564452 -21.66796875 91.73828125 C-26.22000283 87.91043441 -27.47633862 85.08607096 -27.9921875 79.24609375 C-28.07428467 78.34391113 -28.15638184 77.44172852 -28.2409668 76.51220703 C-28.29937744 75.82368652 -28.35778809 75.13516602 -28.41796875 74.42578125 C-29.5006604 74.43363647 -29.5006604 74.43363647 -30.60522461 74.44165039 C-33.85529724 74.46235483 -37.10535603 74.47542043 -40.35546875 74.48828125 C-42.05993164 74.50084961 -42.05993164 74.50084961 -43.79882812 74.51367188 C-44.87841797 74.51689453 -45.95800781 74.52011719 -47.0703125 74.5234375 C-48.5706604 74.53129272 -48.5706604 74.53129272 -50.10131836 74.53930664 C-52.41796875 74.42578125 -52.41796875 74.42578125 -53.41796875 73.42578125 C-53.827775 68.81546097 -53.2699033 66.9621801 -50.41796875 63.42578125 C-49.70363754 60.77643303 -49.70363754 60.77643303 -49.41796875 58.42578125 C-48.75796875 58.42578125 -48.09796875 58.42578125 -47.41796875 58.42578125 C-47.50046875 57.25015625 -47.58296875 56.07453125 -47.66796875 54.86328125 C-47.63245795 48.139903 -44.19369192 44.05990425 -39.66796875 39.48828125 C-38.59195344 38.4597372 -37.51115449 37.43605683 -36.41796875 36.42578125 C-38.89878348 37.04462781 -41.37762072 37.6700563 -43.85546875 38.30078125 C-47.41796875 38.42578125 -47.41796875 38.42578125 -50.29296875 36.42578125 C-52.81864562 32.86011979 -53.49592384 30.79126635 -53.41796875 26.42578125 C-51.4842258 23.17709309 -49.28566319 21.31777671 -46.35546875 18.92578125 C-43.55495298 16.54236357 -42.17721759 14.59242916 -40.41796875 11.42578125 C-39.75796875 11.09578125 -39.09796875 10.76578125 -38.41796875 10.42578125 C-38.43859375 9.29140625 -38.45921875 8.15703125 -38.48046875 6.98828125 C-38.41796875 3.42578125 -38.41796875 3.42578125 -37.41796875 2.42578125 C-29.63451786 1.61500512 -23.46303655 4.66341407 -17.41796875 9.42578125 C-15.27109206 8.11496224 -13.12543776 6.80221514 -10.98046875 5.48828125 C-10.36880859 5.11509766 -9.75714844 4.74191406 -9.12695312 4.35742188 C-2.53693515 0.31602964 -2.53693515 0.31602964 0 0 Z " fill="#0B4164" transform="translate(60.41796875,15.57421875)"/>
<path d="M0 0 C6.54368671 3.11895348 9.34706331 9.61546005 12 16 C12.32097656 16.73347656 12.64195313 17.46695313 12.97265625 18.22265625 C15.32516773 24.25165079 15.94646347 30.58817393 15 37 C13.69921875 39.3046875 13.69921875 39.3046875 12 41 C8.5493095 41.78699959 7.26742362 42.02313265 4 41 C1.23007405 38.93728918 -1.1683643 36.70669753 -3.60546875 34.26171875 C-7.19732711 30.86908255 -9.72273302 29.10824296 -14.6875 28.6875 C-21.78780947 28.98278697 -28.95723819 30.12336048 -35 34 C-36.70542813 36.35025058 -37.90783519 38.87032293 -39.125 41.5 C-43.15306207 49.99290195 -43.15306207 49.99290195 -47 52 C-50.5 52 -50.5 52 -54 51 C-60.09665161 44.90334839 -59.24654514 38.29115391 -59.3125 30.1875 C-59.34150391 29.01123047 -59.37050781 27.83496094 -59.40039062 26.62304688 C-59.46216106 18.21751671 -58.59722382 14.69714671 -52.75 8.6875 C-49.02824745 6.4036973 -46.35399529 6.21413092 -42 6 C-41.34 6.33 -40.68 6.66 -40 7 C-30.96201481 7.75316543 -21.96396667 5.57623587 -13.9140625 1.3984375 C-9.27124991 -0.82961465 -5.03308269 -0.87181491 0 0 Z " fill="#008CDB" transform="translate(95,53)"/>
<path d="M0 0 C5.41053551 0.22083818 8.49928289 1.38570914 12.421875 5.17578125 C17.82791269 11.42483966 18.4202754 17.79046853 18.625 25.8125 C18.67805298 27.06776489 18.67805298 27.06776489 18.73217773 28.34838867 C18.72668136 30.71828174 18.64199298 32.71716784 18 35 C15.13671875 37.32421875 15.13671875 37.32421875 12 39 C10.32793028 40.9254997 10.32793028 40.9254997 9.1875 43 C8.78917969 43.66 8.39085938 44.32 7.98046875 45 C6.78754921 47.25687813 6.78754921 47.25687813 6 51 C1.05 51 -3.9 51 -9 51 C-9 43.13865546 -9 43.13865546 -5.75 39.875 C-5.10675781 39.20339844 -4.46351562 38.53179687 -3.80078125 37.83984375 C-3.20652344 37.23269531 -2.61226562 36.62554687 -2 36 C-0.66172696 34.33729713 0.67189785 32.67083819 2 31 C3.98586 28.65441846 5.98999443 26.32490644 8 24 C7.01 24.33 6.02 24.66 5 25 C2.20006781 25.26565622 -0.59943535 25.44378153 -3.40625 25.62109375 C-6.23110785 25.84452637 -6.23110785 25.84452637 -9 28 C-11.96076291 27.64111965 -12.84658021 27.15341979 -15 25 C-15.359375 22.55859375 -15.359375 22.55859375 -15 20 C-13.390625 18.41015625 -13.390625 18.41015625 -11.25 17.0625 C-7.46480539 14.48350297 -5.47106681 11.88310498 -3 8 C-0.75 6.625 -0.75 6.625 1 6 C0.67 4.02 0.34 2.04 0 0 Z " fill="#F4C214" transform="translate(26,22)"/>
<path d="M0 0 C3.12823322 1.64878389 6.02414246 3.56284328 8.9375 5.5625 C9.71673828 6.08263672 10.49597656 6.60277344 11.29882812 7.13867188 C13.20707119 8.41473625 15.10676978 9.70181233 17 11 C15.11428906 15.34691629 12.27392381 17.00524912 8.25 19.25 C7.6415625 19.61351563 7.033125 19.97703125 6.40625 20.3515625 C2.42793544 22.61274129 -0.45210769 23.71903436 -5 23 C-8.32421875 21.390625 -8.32421875 21.390625 -11.6875 19.25 C-12.80511719 18.55390625 -13.92273437 17.8578125 -15.07421875 17.140625 C-17.71840528 15.20602658 -19.41729503 13.84103931 -21 11 C-21 9.68 -21 8.36 -21 7 C-18.82493404 5.62135209 -16.63864381 4.27335121 -14.4375 2.9375 C-13.82841797 2.54755859 -13.21933594 2.15761719 -12.59179688 1.75585938 C-8.04744815 -0.96113219 -5.26819656 -1.60336417 0 0 Z " fill="#5CB644" transform="translate(66,21)"/>
<path d="M0 0 C1.4540625 0.0309375 1.4540625 0.0309375 2.9375 0.0625 C2.9375 1.3825 2.9375 2.7025 2.9375 4.0625 C4.9175 4.0625 6.8975 4.0625 8.9375 4.0625 C8.9375 6.0425 8.9375 8.0225 8.9375 10.0625 C7.2875 10.3925 5.6375 10.7225 3.9375 11.0625 C4.123125 11.866875 4.30875 12.67125 4.5 13.5 C4.644375 14.345625 4.78875 15.19125 4.9375 16.0625 C3.9375 17.0625 3.9375 17.0625 1.375 17.125 C0.570625 17.104375 -0.23375 17.08375 -1.0625 17.0625 C-1.3925 15.7425 -1.7225 14.4225 -2.0625 13.0625 C-4.0425 13.0625 -6.0225 13.0625 -8.0625 13.0625 C-8.0625 11.0825 -8.0625 9.1025 -8.0625 7.0625 C-6.4125 6.7325 -4.7625 6.4025 -3.0625 6.0625 C-3.3409375 4.8559375 -3.3409375 4.8559375 -3.625 3.625 C-3.769375 2.779375 -3.91375 1.93375 -4.0625 1.0625 C-3.0625 0.0625 -3.0625 0.0625 0 0 Z " fill="#003B67" transform="translate(50.0625,66.9375)"/>
<path d="M0 0 C0 3.96 0 7.92 0 12 C-1.86896555 12.84678051 -3.74550181 13.67686211 -5.625 14.5 C-6.66914062 14.9640625 -7.71328125 15.428125 -8.7890625 15.90625 C-12.08124291 17.02767398 -14.55115223 17.207138 -18 17 C-18 13.83984375 -18 13.83984375 -17 10 C-14.61724159 7.69523088 -11.8837726 6.17037664 -9 4.5625 C-8.24976562 4.11712891 -7.49953125 3.67175781 -6.7265625 3.21289062 C-1.25823253 0 -1.25823253 0 0 0 Z " fill="#009D65" transform="translate(84,38)"/>
<path d="M0 0 C5.16994872 2.06797949 9.92135387 4.13923027 14 8 C14.5625 11.875 14.5625 11.875 14 15 C9.00067249 15.0861953 5.02377899 14.8372965 0 14 C0 9.38 0 4.76 0 0 Z " fill="#009E66" transform="translate(48,41)"/>
<path d="M0 0 C5.28 0 10.56 0 16 0 C16 2.64 16 5.28 16 8 C9.73 8 3.46 8 -3 8 C-2 4 -2 4 0 0 Z " fill="#F8C413" transform="translate(15,78)"/>
<path d="M0 0 C2.5 0.125 2.5 0.125 3.5 1.125 C3.54063832 2.79117115 3.542721 4.45888095 3.5 6.125 C4.44875 5.91875 5.3975 5.7125 6.375 5.5 C7.921875 5.314375 7.921875 5.314375 9.5 5.125 C10.16 5.785 10.82 6.445 11.5 7.125 C11.125 9.75 11.125 9.75 10.5 12.125 C8.6875 12.8125 8.6875 12.8125 6.5 13.125 C4.75 11.875 4.75 11.875 3.5 10.125 C3.5 9.135 3.5 8.145 3.5 7.125 C2.0459375 7.1559375 2.0459375 7.1559375 0.5625 7.1875 C-2.5 7.125 -2.5 7.125 -3.5 6.125 C-3.625 3.625 -3.625 3.625 -3.5 1.125 C-2.5 0.125 -2.5 0.125 0 0 Z " fill="#094874" transform="translate(83.5,65.875)"/>
<path d="M0 0 C0.04254356 1.99954746 0.04080783 4.00041636 0 6 C-1 7 -1 7 -3.5 7.125 C-6 7 -6 7 -7 6 C-7.04080783 4.00041636 -7.04254356 1.99954746 -7 0 C-4.3333581 -1.33332095 -2.83319697 -0.67102033 0 0 Z " fill="#035170" transform="translate(100,64)"/>
<path d="M0 0 C1.67542976 0.28604898 3.34385343 0.61781233 5 1 C5.33 2.65 5.66 4.3 6 6 C3.6875 7.125 3.6875 7.125 1 8 C0.01 7.34 -0.98 6.68 -2 6 C-1.125 1.125 -1.125 1.125 0 0 Z " fill="#17506C" transform="translate(87,58)"/>
<path d="M0 0 C0 3.96 0 7.92 0 12 C-1.65 12.33 -3.3 12.66 -5 13 C-4.34 10.69 -3.68 8.38 -3 6 C-3.99 5.67 -4.98 5.34 -6 5 C-1.125 0 -1.125 0 0 0 Z " fill="#009D66" transform="translate(84,38)"/>
<path d="M0 0 C0.0825 0.94875 0.165 1.8975 0.25 2.875 C0.65074923 6.10461791 0.65074923 6.10461791 3.0625 7.375 C3.701875 7.58125 4.34125 7.7875 5 8 C1.65526199 9.11491267 -0.60063522 8.80511271 -4 8 C-4.66 8 -5.32 8 -6 8 C-6.3125 5.6875 -6.3125 5.6875 -6 3 C-1.96551724 0 -1.96551724 0 0 0 Z " fill="#0083CE" transform="translate(93,64)"/>
<path d="M0 0 C1.67542976 0.28604898 3.34385343 0.61781233 5 1 C4.67 2.65 4.34 4.3 4 6 C2.0625 6.5625 2.0625 6.5625 0 7 C-1 6 -1 6 -1.125 3.5 C-1 1 -1 1 0 0 Z " fill="#1B4960" transform="translate(90,72)"/>
<path d="M0 0 C1.4540625 0.0309375 1.4540625 0.0309375 2.9375 0.0625 C3.5 2 3.5 2 3.9375 4.0625 C2.9375 5.0625 2.9375 5.0625 -0.125 5.125 C-1.094375 5.104375 -2.06375 5.08375 -3.0625 5.0625 C-3.625 3.125 -3.625 3.125 -4.0625 1.0625 C-3.0625 0.0625 -3.0625 0.0625 0 0 Z " fill="#0C465D" transform="translate(71.0625,32.9375)"/>
<path d="M0 0 C2.625 0.375 2.625 0.375 5 1 C4.67 2.65 4.34 4.3 4 6 C2.35 6 0.7 6 -1 6 C-1.625 4.125 -1.625 4.125 -2 2 C-1.34 1.34 -0.68 0.68 0 0 Z " fill="#0B445D" transform="translate(60,26)"/>
<path d="M0 0 C0.66 0 1.32 0 2 0 C2.50423019 5.29441695 1.18923033 7.81413519 -2 12 C-2.66 11.67 -3.32 11.34 -4 11 C-3.71125 10.29875 -3.4225 9.5975 -3.125 8.875 C-1.97866412 5.94547497 -0.97374346 2.99078347 0 0 Z " fill="#E09B0F" transform="translate(36,38)"/>
<path d="M0 0 C1.32 0.33 2.64 0.66 4 1 C4.33 2.98 4.66 4.96 5 7 C1.125 6.125 1.125 6.125 0 5 C-0.04063832 3.33382885 -0.042721 1.66611905 0 0 Z " fill="#004460" transform="translate(54,48)"/>
<path d="M0 0 C0.99 0 1.98 0 3 0 C3 1.65 3 3.3 3 5 C1.02 5.99 1.02 5.99 -1 7 C-1.625 5.1875 -1.625 5.1875 -2 3 C-1.34 2.01 -0.68 1.02 0 0 Z " fill="#004760" transform="translate(78,44)"/>
<path d="M0 0 C1.98 0.495 1.98 0.495 4 1 C3.67 2.32 3.34 3.64 3 5 C1.68 4.67 0.36 4.34 -1 4 C-0.67 2.68 -0.34 1.36 0 0 Z " fill="#C75640" transform="translate(82,67)"/>
<path d="M0 0 C2.475 0.495 2.475 0.495 5 1 C4.67 1.99 4.34 2.98 4 4 C2.68 4 1.36 4 0 4 C0 2.68 0 1.36 0 0 Z " fill="#DAB41D" transform="translate(89,73)"/>
<path d="M0 0 C2.475 0.495 2.475 0.495 5 1 C5 1.99 5 2.98 5 4 C3.35 3.67 1.7 3.34 0 3 C0 2.01 0 1.02 0 0 Z " fill="#1CBC67" transform="translate(94,65)"/>
<path d="M0 0 C0.99 0.33 1.98 0.66 3 1 C3 2.32 3 3.64 3 5 C1.68 5 0.36 5 -1 5 C-0.67 3.35 -0.34 1.7 0 0 Z " fill="#E3B91A" transform="translate(88,59)"/>
</svg>
